<?xml version="1.0" encoding="UTF-8" standalone="no"?>
<svg
   viewBox="574.784 0 167.20366 46.085141"
   role="img"
   aria-label="Horizontal GRIDI wordmark"
   version="1.1"
   id="svg4571"
   width="167.20366"
   height="46.08514"
   xmlns="http://www.w3.org/2000/svg"
   xmlns:svg="http://www.w3.org/2000/svg"
   xmlns:rdf="http://www.w3.org/1999/02/22-rdf-syntax-ns#"
   xmlns:cc="http://creativecommons.org/ns#"
   xmlns:dc="http://purl.org/dc/elements/1.1/">
  <defs
     id="defs4575" />
  <title
     id="title4565">Horizontal GRIDI wordmark</title>
  <g
     transform="translate(-6.642445,-102.5367)"
     id="g4569">
    <path
       d="m 606.19862,103.08538 h 3.46123 v 44.98779 h -27.68473 v -6.92143 h 3.46021 v 3.46021 h 20.76329 v -10.38131 h -24.2235 v -27.68437 h 24.2235 z m 10.38165,0 h 3.46122 v 3.46089 h 24.2235 v 27.68437 h -11.74255 l 10.1434,13.8422 h -4.29054 l -10.1434,-13.8422 h -8.19041 v 13.84253 h -3.46122 z m 93.43479,3.4e-4 h 3.46123 v 41.52623 h 3.46021 v 3.46122 h -6.92144 v -3.3e-4 h -24.22349 v -27.68439 h 24.22349 z m -58.82898,3.46055 h 27.68438 v 27.68437 h -27.68438 z m 69.21096,0 h 27.68439 v 27.68437 h -27.68439 z m -57.09937,31.14526 h 3.46122 v 10.38164 h -3.46122 z m 69.21129,0 h 3.46021 v 10.38164 h -3.46021 z"
       fill="currentColor"
       stroke="currentColor"
       stroke-width="1.09735"
       stroke-linecap="butt"
       stroke-linejoin="miter"
       stroke-miterlimit="4"
       paint-order="fill markers stroke"
       id="path4567" />
  </g>
  <metadata
     id="metadata4577">
    <rdf:RDF>
      <cc:Work
         rdf:about="">
        <dc:title>Horizontal GRIDI wordmark</dc:title>
      </cc:Work>
    </rdf:RDF>
  </metadata>
</svg>
