<?xml version="1.0" encoding="UTF-8" standalone="no"?>
<!-- Created with Inkscape (http://www.inkscape.org/) -->

<svg
   width="181.59467mm"
   height="181.59467mm"
   viewBox="0 0 181.59467 181.59467"
   version="1.1"
   id="svg1479"
   inkscape:version="1.2.2 (b0a8486541, 2022-12-01)"
   sodipodi:docname="gridi_logo_v3.svg"
   xmlns:inkscape="http://www.inkscape.org/namespaces/inkscape"
   xmlns:sodipodi="http://sodipodi.sourceforge.net/DTD/sodipodi-0.dtd"
   xmlns="http://www.w3.org/2000/svg"
   xmlns:svg="http://www.w3.org/2000/svg">
  <sodipodi:namedview
     id="namedview1481"
     pagecolor="#ffffff"
     bordercolor="#000000"
     borderopacity="0.25"
     inkscape:showpageshadow="2"
     inkscape:pageopacity="0.0"
     inkscape:pagecheckerboard="0"
     inkscape:deskcolor="#d1d1d1"
     inkscape:document-units="mm"
     showgrid="false"
     inkscape:zoom="0.26362494"
     inkscape:cx="1208.1558"
     inkscape:cy="673.30503"
     inkscape:window-width="1920"
     inkscape:window-height="1048"
     inkscape:window-x="1920"
     inkscape:window-y="15"
     inkscape:window-maximized="1"
     inkscape:current-layer="layer1">
    <inkscape:page
       x="0"
       y="0"
       width="181.59467"
       height="181.59467"
       id="page1908" />
    <inkscape:page
       x="191.59467"
       y="0"
       width="181.59467"
       height="181.59467"
       id="page1910" />
    <inkscape:page
       x="383.18933"
       y="0"
       width="181.59467"
       height="181.59467"
       id="page1914" />
    <inkscape:page
       x="574.784"
       y="0"
       width="181.59467"
       height="181.59467"
       id="page1916" />
    <inkscape:page
       x="2.4906412e-06"
       y="202.82108"
       width="181.59467"
       height="181.59467"
       id="page2107" />
    <inkscape:page
       x="191.59467"
       y="202.82108"
       width="181.59467"
       height="181.59467"
       id="page2109" />
    <inkscape:page
       x="383.18933"
       y="202.82108"
       width="181.59467"
       height="181.59468"
       id="page2111" />
    <inkscape:page
       x="574.784"
       y="202.82109"
       width="181.59467"
       height="181.59467"
       id="page2113" />
  </sodipodi:namedview>
  <defs
     id="defs1476" />
  <g
     inkscape:label="Layer 1"
     inkscape:groupmode="layer"
     id="layer1"
     transform="translate(0.827443,-39.685881)">
    <rect
       style="fill:#000000;fill-opacity:0.952941;stroke:none;stroke-width:1.897;stroke-dasharray:none;paint-order:fill markers stroke;stop-color:#000000"
       id="rect2726"
       width="181.59467"
       height="181.5947"
       x="573.95654"
       y="242.50694" />
    <rect
       style="fill:#000000;fill-opacity:0.952941;stroke:none;stroke-width:1.897;stroke-dasharray:none;paint-order:fill markers stroke;stop-color:#000000"
       id="rect2620"
       width="181.59467"
       height="181.5947"
       x="382.36188"
       y="242.50694" />
    <path
       id="rect314"
       style="font-variation-settings:normal;vector-effect:none;fill:#000000;fill-opacity:0.952941;stroke:#000000;stroke-width:1.678;stroke-linecap:butt;stroke-linejoin:miter;stroke-miterlimit:4;stroke-dasharray:none;stroke-dashoffset:0;stroke-opacity:1;-inkscape-stroke:none;paint-order:fill markers stroke;stop-color:#000000"
       d="M 0.01155699,40.524881 V 220.44154 H 179.92822 V 40.524881 Z M 47.63604,54.282691 h 5.2927 V 123.07539 H 10.59489 v -10.58385 h 5.29115 v 5.29115 h 31.75 V 101.90821 H 10.59489 V 59.574881 h 37.04115 z m 15.875,0 h 5.2927 v 5.29219 h 37.04115 V 101.90821 H 87.88888 l 15.51068,21.16667 H 96.83872 L 81.32804,101.90821 h -12.5243 v 21.16718 h -5.2927 z m 52.91718,5.29219 h 42.33334 v 42.333329 h -42.33334 z m 18.52032,47.625509 h 5.2927 v 15.875 h -5.2927 z m -34.39583,26.45782 h 5.2927 v 63.49948 h 5.29115 v 5.2927 h -10.58385 v -5.1e-4 H 63.511557 v -42.33334 h 37.041153 z m 15.87551,5.29167 h 42.33334 v 42.33333 h -42.33334 z m 18.52084,47.62551 h 5.29115 v 15.875 h -5.29115 z" />
    <path
       id="rect316"
       style="font-variation-settings:normal;vector-effect:none;fill:#000000;fill-opacity:0.952941;stroke:#000000;stroke-width:1.09735;stroke-linecap:butt;stroke-linejoin:miter;stroke-miterlimit:4;stroke-dasharray:none;stroke-dashoffset:0;stroke-opacity:1;-inkscape-stroke:none;paint-order:fill markers stroke;stop-color:#000000"
       d="M 191.31589,94.088293 V 156.37815 H 371.8132 V 94.088293 Z m 31.69341,8.997087 h 3.46123 v 44.98779 H 198.7858 v -6.92143 h 3.46021 v 3.46021 h 20.76329 v -10.38131 h -24.2235 v -27.68437 h 24.2235 z m 10.38165,0 h 3.46122 v 3.46089 h 24.2235 v 27.68437 h -11.74255 l 10.1434,13.8422 h -4.29054 l -10.1434,-13.8422 h -8.19041 v 13.84253 h -3.46122 z m 93.43479,3.4e-4 h 3.46123 v 41.52623 h 3.46021 v 3.46122 h -6.92144 v -3.3e-4 h -24.22349 v -27.68439 h 24.22349 z m -58.82898,3.46055 h 27.68438 v 27.68437 h -27.68438 z m 69.21096,0 h 27.68439 v 27.68437 h -27.68439 z m -57.09937,31.14526 h 3.46122 v 10.38164 h -3.46122 z m 69.21129,0 h 3.46021 v 10.38164 h -3.46021 z" />
    <path
       id="path1918"
       style="font-variation-settings:normal;vector-effect:none;fill:#000000;fill-opacity:0.952941;stroke:#000000;stroke-width:1.678;stroke-linecap:butt;stroke-linejoin:miter;stroke-miterlimit:4;stroke-dasharray:none;stroke-dashoffset:0;stroke-opacity:1;-inkscape-stroke:none;paint-order:fill markers stroke;stop-color:#000000"
       d="m 430.82536,54.282691 h 5.2927 v 68.792699 h -42.33385 v -10.58385 h 5.29115 v 5.29115 h 31.75 V 101.90821 H 393.78421 V 59.574881 h 37.04115 z m 15.875,0 h 5.2927 v 5.29219 h 37.04115 V 101.90821 H 471.0782 l 15.51068,21.16667 h -6.56084 l -15.51068,-21.16667 h -12.5243 v 21.16718 h -5.2927 z m 52.91718,5.29219 h 42.33334 v 42.333329 h -42.33334 z m 18.52032,47.625509 h 5.2927 v 15.875 h -5.2927 z m -34.39583,26.45782 h 5.2927 v 63.49948 h 5.29115 v 5.2927 h -10.58385 v -5.1e-4 h -37.04115 v -42.33334 h 37.04115 z m 15.87551,5.29167 h 42.33334 v 42.33333 h -42.33334 z m 18.52084,47.62551 h 5.29115 v 15.875 h -5.29115 z"
       sodipodi:nodetypes="ccccccccccccccccccccccccccccccccccccccccccccccccccccccccc" />
    <path
       id="path1920"
       style="font-variation-settings:normal;vector-effect:none;fill:#000000;fill-opacity:0.952941;stroke:#000000;stroke-width:1.09735;stroke-linecap:butt;stroke-linejoin:miter;stroke-miterlimit:4;stroke-dasharray:none;stroke-dashoffset:0;stroke-opacity:1;-inkscape-stroke:none;paint-order:fill markers stroke;stop-color:#000000"
       d="m 606.19862,103.08538 h 3.46123 v 44.98779 h -27.68473 v -6.92143 h 3.46021 v 3.46021 h 20.76329 v -10.38131 h -24.2235 v -27.68437 h 24.2235 z m 10.38165,0 h 3.46122 v 3.46089 h 24.2235 v 27.68437 h -11.74255 l 10.1434,13.8422 h -4.29054 l -10.1434,-13.8422 h -8.19041 v 13.84253 h -3.46122 z m 93.43479,3.4e-4 h 3.46123 v 41.52623 h 3.46021 v 3.46122 h -6.92144 v -3.3e-4 h -24.22349 v -27.68439 h 24.22349 z m -58.82898,3.46055 h 27.68438 v 27.68437 h -27.68438 z m 69.21096,0 h 27.68439 v 27.68437 h -27.68439 z m -57.09937,31.14526 h 3.46122 v 10.38164 h -3.46122 z m 69.21129,0 h 3.46021 v 10.38164 h -3.46021 z"
       sodipodi:nodetypes="ccccccccccccccccccccccccccccccccccccccccccccccccccccccccc" />
    <path
       id="rect314-3"
       style="font-variation-settings:normal;vector-effect:none;fill:#ffffff;fill-opacity:0.952941;stroke:#000000;stroke-width:1.678;stroke-linecap:butt;stroke-linejoin:miter;stroke-miterlimit:4;stroke-dasharray:none;stroke-dashoffset:0;stroke-opacity:1;-inkscape-stroke:none;paint-order:fill markers stroke;stop-color:#000000"
       d="M 0.01155756,243.34595 V 423.26261 H 179.92822 V 243.34595 Z M 47.636041,257.10376 h 5.2927 v 68.7927 h -42.33385 v -10.58385 h 5.29115 v 5.29115 h 31.75 v -15.87448 h -37.04115 v -42.33333 h 37.04115 z m 15.875,0 h 5.2927 v 5.29219 h 37.041149 v 42.33333 H 87.888881 l 15.510679,21.16667 h -6.560839 l -15.51068,-21.16667 h -12.5243 v 21.16718 h -5.2927 z m 52.917179,5.29219 h 42.33334 v 42.33333 h -42.33334 z m 18.52032,47.62551 h 5.2927 v 15.875 h -5.2927 z m -34.39583,26.45782 h 5.2927 v 63.49948 h 5.29115 v 5.2927 h -10.58385 v -5.1e-4 H 63.511558 v -42.33334 h 37.041152 z m 15.87551,5.29167 h 42.33334 v 42.33333 h -42.33334 z m 18.52084,47.62551 h 5.29115 v 15.875 h -5.29115 z" />
    <path
       id="path2147"
       style="font-variation-settings:normal;fill:none;fill-opacity:0.952941;stroke:#000000;stroke-width:1.897;stroke-linecap:butt;stroke-linejoin:miter;stroke-miterlimit:4;stroke-dasharray:none;stroke-dashoffset:0;stroke-opacity:1;paint-order:fill markers stroke;stop-color:#000000"
       d="m 223.0093,311.15644 h 3.46123 v 44.98779 H 198.7858 v -6.92143 h 3.46021 v 3.46021 H 223.0093 V 342.3017 h -24.2235 v -27.68437 h 24.2235 z m 10.38165,0 h 3.46122 v 3.46089 h 24.2235 v 27.68437 h -11.74255 l 10.1434,13.8422 h -4.29054 l -10.1434,-13.8422 h -8.19041 v 13.84253 h -3.46122 z m 93.43479,3.4e-4 h 3.46123 v 41.52623 h 3.46021 v 3.46122 h -6.92144 v -3.3e-4 h -24.22349 v -27.68439 h 24.22349 z m -58.82898,3.46055 h 27.68438 v 27.68437 h -27.68438 z m 69.21096,0 h 27.68439 v 27.68437 h -27.68439 z m -57.09937,31.14526 h 3.46122 v 10.38164 h -3.46122 z m 69.21129,0 h 3.46021 v 10.38164 h -3.46021 z"
       sodipodi:nodetypes="ccccccccccccccccccccccccccccccccccccccccccccccccccccccccc" />
    <path
       id="path2512"
       style="font-variation-settings:normal;vector-effect:none;fill:none;fill-opacity:0.952941;stroke:#ffffff;stroke-width:1.678;stroke-linecap:butt;stroke-linejoin:miter;stroke-miterlimit:4;stroke-dasharray:none;stroke-dashoffset:0;stroke-opacity:1;-inkscape-stroke:none;paint-order:fill markers stroke;stop-color:#000000"
       d="m 431.22519,257.10376 h 5.2927 v 68.7927 h -42.33385 v -10.58385 h 5.29115 v 5.29115 h 31.75 v -15.87448 h -37.04115 v -42.33333 h 37.04115 z m 15.875,0 h 5.2927 v 5.29219 h 37.04114 v 42.33333 h -17.956 l 15.51067,21.16667 h -6.56083 l -15.51068,-21.16667 h -12.5243 v 21.16718 h -5.2927 z m 52.91717,5.29219 h 42.33334 v 42.33333 h -42.33334 z m 18.52032,47.62551 h 5.2927 v 15.875 h -5.2927 z m -34.39583,26.45782 h 5.2927 v 63.49948 h 5.29115 v 5.2927 h -10.58385 v -5.1e-4 H 447.1007 v -42.33334 h 37.04115 z m 15.87551,5.29167 h 42.33334 v 42.33333 h -42.33334 z m 18.52084,47.62551 h 5.29115 v 15.875 h -5.29115 z"
       sodipodi:nodetypes="ccccccccccccccccccccccccccccccccccccccccccccccccccccccccc" />
    <path
       id="path2514"
       style="font-variation-settings:normal;fill:none;fill-opacity:0.952941;stroke:#ffffff;stroke-width:1.897;stroke-linecap:butt;stroke-linejoin:miter;stroke-miterlimit:4;stroke-dasharray:none;stroke-dashoffset:0;stroke-opacity:1;paint-order:fill markers stroke;stop-color:#000000"
       d="m 606.59844,311.15644 h 3.46123 v 44.98779 h -27.68473 v -6.92143 h 3.46021 v 3.46021 h 20.76329 V 342.3017 h -24.2235 v -27.68437 h 24.2235 z m 10.38165,0 h 3.46122 v 3.46089 h 24.2235 v 27.68437 h -11.74255 l 10.1434,13.8422 h -4.29054 l -10.1434,-13.8422 h -8.19041 v 13.84253 h -3.46122 z m 93.43479,3.4e-4 h 3.46123 v 41.52623 h 3.46021 v 3.46122 h -6.92144 v -3.3e-4 h -24.22349 v -27.68439 h 24.22349 z m -58.82898,3.46055 h 27.68438 V 342.3017 H 651.5859 Z m 69.21096,0 h 27.68439 v 27.68437 h -27.68439 z m -57.09937,31.14526 h 3.46122 v 10.38164 h -3.46122 z m 69.21129,0 h 3.46021 v 10.38164 h -3.46021 z"
       sodipodi:nodetypes="ccccccccccccccccccccccccccccccccccccccccccccccccccccccccc" />
  </g>
</svg>
